<?xml version="1.0" encoding="UTF-8"?>
<svg viewBox="0 0 64 64" xmlns="http://www.w3.org/2000/svg">
 <g fill="#f37021" stroke-width="0">
  <g stroke="#1757cc" stroke-linecap="square" stroke-linejoin="round">
   <rect x="14.71" y="27.838" width="4.0537" height="24.536" rx="2.0268" ry="2.1233"/>
   <rect x="21.344" y="27.838" width="4.0537" height="24.536" rx="2.0268" ry="2.1233"/>
   <rect x="27.978" y="27.838" width="4.0537" height="24.536" rx="2.0268" ry="2.1233"/>
   <rect x="34.612" y="27.838" width="4.0537" height="24.536" rx="2.0268" ry="2.1233"/>
   <rect x="41.246" y="27.838" width="4.0537" height="24.536" rx="2.0268" ry="2.1233"/>
   <rect x="47.88" y="27.838" width="4.0537" height="24.536" rx="2.0268" ry="2.1233"/>
   <rect x="9.6051" y="54.733" width="49.395" height="2.5165"/>
  </g>
  <g stroke-linecap="round">
   <path d="m31.805 7.2536c-0.2505 0.00134-0.53621 0.10304-0.84223 0.31221l-20.188 13.791c-0.97929 0.66935-1.7752 2.1958-1.7752 3.4207 0 0.82946 0.36952 1.3056 0.90701 1.3167 0.31849 0.29858 0.74203 0.48867 1.205 0.48867h44.431c0.99811 0 1.8011-0.84119 1.8011-1.8868 0-0.17427-0.022961-0.34225-0.0648-0.50224 0.095737-0.05319 0.03191-0.19453-0.15548-0.40723-0.01012-0.011461-0.01506-0.01524-0.025902-0.02714-0.20759-0.37973-0.52315-0.6738-0.91998-0.82803-3.2727-2.6521-12.758-8.7482-18.568-12.42l-4.3148-2.9456c-0.44636-0.3051-0.85571-0.38471-1.1662-0.25791-0.098518-0.04079-0.20772-0.05496-0.32394-0.0543h1.1e-5z" stroke="#000"/>
   <rect y=".25" width="64" height="64" opacity="0"/>
  </g>
 </g>
</svg>
